# xmcd CD database file
# Copyright (C) 1993-1998 Ti Kan
#
# Track frame offsets:
#	150
#	23717
#	42527
#	64917
#	85177
#	112942
#	129912
#	147435
#	171440
#	186835
#
# Disc length: 2702 seconds
#
# Revision: 1
# Processed by: cddbd v1.4b41PL1 Copyright (c) Steve Scherf et al.
# Submitted via: CDValet v3.31 - Copyright (c) 1997 Greg Leichner
#
DISCID=890a8c0a
DTITLE=Johan Stengard - Duo
DYEAR=1900
DGENRE=
TTITLE0=Bridge Over Troubled Water
TTITLE1=Remember September
TTITLE2=Georgia On My Mind
TTITLE3=Silverlining
TTITLE4=Over The Rainbow
TTITLE5=Morning Has Broken
TTITLE6=Landscape Of Love
TTITLE7=Come Sunday
TTITLE8=Chess
TTITLE9=Anthem
EXTD=
EXTT0=
EXTT1=
EXTT2=
EXTT3=
EXTT4=
EXTT5=
EXTT6=
EXTT7=
EXTT8=
EXTT9=
PLAYORDER=
